<svg id="Layer_1" data-name="Layer 1" xmlns="http://www.w3.org/2000/svg" viewBox="0 0 710.72 231.06"><defs><style>.cls-1{fill:#fffce9;}.cls-2{fill:#9ba98c;}.cls-3{fill:#ddd6cc;}.cls-4{fill:#dcd5cb;}</style></defs><path class="cls-1" d="M70.53,76a15.25,15.25,0,0,0,11.16-4.59,15,15,0,0,0,4.58-11A15.77,15.77,0,0,0,59.51,48.93l-.2.19a15.59,15.59,0,0,0-4.58,11.3,14.91,14.91,0,0,0,4.58,11A15.21,15.21,0,0,0,70.53,76Z" transform="translate(0.03 0.02)"/><path class="cls-1" d="M35.36,76a15.24,15.24,0,0,0,11.19-4.59,14.91,14.91,0,0,0,4.58-11A15.77,15.77,0,0,0,24.37,48.93l-.2.19a15.59,15.59,0,0,0-4.58,11.3,14.91,14.91,0,0,0,4.58,11A15.24,15.24,0,0,0,35.36,76Z" transform="translate(0.03 0.02)"/><path class="cls-1" d="M269.37,76a15.24,15.24,0,0,0,11.2-4.59,14.91,14.91,0,0,0,4.58-11,15.8,15.8,0,0,0-26.77-11.54l-.23.24a15.6,15.6,0,0,0-4.59,11.3,15,15,0,0,0,4.59,11A15.21,15.21,0,0,0,269.37,76Z" transform="translate(0.03 0.02)"/><path class="cls-1" d="M234.21,76a15.24,15.24,0,0,0,11.19-4.59,14.91,14.91,0,0,0,4.58-11,15.79,15.79,0,0,0-26.76-11.54l-.24.24a15.59,15.59,0,0,0-4.58,11.3,14.91,14.91,0,0,0,4.58,11A15.23,15.23,0,0,0,234.21,76Z" transform="translate(0.03 0.02)"/><path class="cls-1" d="M352.92,26.75q4.26,3.53,11.08,3.52a26,26,0,0,0,3.84-.32c1.43-.21,2.42-.39,3-.53a2.59,2.59,0,0,0-.43,1.06,4.88,4.88,0,0,1-1,1.81,9.42,9.42,0,0,1-1.92,1.81,6.67,6.67,0,0,1-3.32,1.08L349,37.94v9.38l18.55-3.41a16.23,16.23,0,0,0,7.14-3A15.7,15.7,0,0,0,379,35.47a23.88,23.88,0,0,0,2.13-7.35,67.08,67.08,0,0,0,.53-8.73q0-10.87-4.91-15.14A17.24,17.24,0,0,0,365,0,16.36,16.36,0,0,0,353.3,4.46q-4.6,4.49-4.61,12Q348.69,23.24,352.92,26.75Zm6.71-15.46a7.49,7.49,0,0,1,10.59.14l.18.19c1.43,1.66,2.13,4.22,2.13,7.78v1.48a20.52,20.52,0,0,1-2.77.83,16,16,0,0,1-3.84.43A14.53,14.53,0,0,1,360.81,21q-3-1.17-3-5A7.16,7.16,0,0,1,359.63,11.29Z" transform="translate(0.03 0.02)"/><path class="cls-1" d="M367.74,156.46a23.61,23.61,0,0,1-6.29-5.32,25.26,25.26,0,0,1-5.76-15.67,19.64,19.64,0,0,1,19.46-19.82h.36c1.71,0,3.16,0,4.38.1a13.57,13.57,0,0,1,3.62.75,22.42,22.42,0,0,1,3.94,1.92c1.43.85,3.27,2.06,5.54,3.62L410.69,105a47.46,47.46,0,0,0-15-10.8,43.92,43.92,0,0,0-18.44-3.94A44.41,44.41,0,0,0,359,94.09a52.22,52.22,0,0,0-15.29,10.23,49.24,49.24,0,0,0-10.5,14.93,44,44,0,0,0,1.39,39.21h-36V137.39A45.78,45.78,0,0,0,295,119.25a46.89,46.89,0,0,0-10-15,50.11,50.11,0,0,0-14.84-10.18,42.8,42.8,0,0,0-18-3.84,44.41,44.41,0,0,0-18.27,3.84,52.38,52.38,0,0,0-15.21,10.23,49.19,49.19,0,0,0-10.55,15,42.42,42.42,0,0,0-3.94,18.11,44.11,44.11,0,0,0,1.38,11.09,51,51,0,0,0,3.73,10H181.57q-9.13,0-12.69-3.83t-3.51-12.36V14.84H137.23v128.3q0,8.54-4.47,11.94c-3,2.27-7.67,3.41-14.07,3.41H103.35a18.58,18.58,0,0,1-6.5-.83,4.51,4.51,0,0,1-2.67-2.78,12.09,12.09,0,0,1-.32-4.9,65.47,65.47,0,0,0,.32-7,15.21,15.21,0,0,1,.11-2.24,18.86,18.86,0,0,0,.11-2.49v-46h-48a45.07,45.07,0,0,0-18,3.63A46.66,46.66,0,0,0,3.69,120.23a44.08,44.08,0,0,0-3.72,18,42.61,42.61,0,0,0,3.94,18.12,49.19,49.19,0,0,0,10.55,15,52,52,0,0,0,15.23,10.26,45.15,45.15,0,0,0,49.13-8.3,32.42,32.42,0,0,0,8.63,7q5.44,3.21,13.53,3.2h27.5a41.24,41.24,0,0,0,19-4.15,26.74,26.74,0,0,0,12.21-12.75q6.18,9.58,12.89,13.22t17.11,3.64H410V158.5H375.51A15.22,15.22,0,0,1,367.74,156.46ZM66.05,140.16a18.61,18.61,0,0,1-1.6,7.78,22.82,22.82,0,0,1-4.26,6.29,18.5,18.5,0,0,1-6.29,4.26,19.95,19.95,0,0,1-27.5-18v-.35a23.34,23.34,0,0,1,1.5-8.1,24.54,24.54,0,0,1,4.26-7.36,23.31,23.31,0,0,1,6.29-5.32,15.25,15.25,0,0,1,7.78-2H66.05Zm204.18,18.33H249.56a15.38,15.38,0,0,1-7.47-2.34,23.52,23.52,0,0,1-6-5.34,25.52,25.52,0,0,1-4-7.24,23.1,23.1,0,0,1-1.49-8.1,19.64,19.64,0,0,1,19.46-19.82h.36a20,20,0,0,1,7.67,1.49,18.5,18.5,0,0,1,6.29,4.26,22.35,22.35,0,0,1,4.27,6.39,19,19,0,0,1,1.59,7.68Z" transform="translate(0.03 0.02)"/><circle class="cls-1" cx="600.48" cy="120.82" r="110.24"/><circle class="cls-2" cx="600.48" cy="120.82" r="91.87"/><path class="cls-3" d="M695.16,171.29a112.28,112.28,0,0,1-44.22,44.27c-1.28-2.35-2.54-4.73-3.71-7.17A105.44,105.44,0,0,0,688,167.56C690.43,168.75,692.81,170,695.16,171.29Z" transform="translate(0.03 0.02)"/><path class="cls-3" d="M629.27,25.82c.9-2.54,1.69-5.13,2.45-7.69a112.15,112.15,0,0,0-62.54,0c.76,2.56,1.55,5.15,2.45,7.69a105.51,105.51,0,0,1,57.64,0Z" transform="translate(0.03 0.02)"/><path class="cls-3" d="M688,74c2.44-1.17,4.82-2.43,7.17-3.71a112.35,112.35,0,0,0-44.22-44.22c-1.28,2.35-2.54,4.73-3.71,7.17A105.47,105.47,0,0,1,688,74Z" transform="translate(0.03 0.02)"/><path class="cls-3" d="M703.12,152.07a112.15,112.15,0,0,0,0-62.54c-2.56.76-5.15,1.55-7.69,2.45a105.51,105.51,0,0,1,0,57.64C698,150.56,700.56,151.31,703.12,152.07Z" transform="translate(0.03 0.02)"/><path class="cls-3" d="M631.69,223.48c-.76-2.57-1.55-5.15-2.45-7.7a105.51,105.51,0,0,1-57.64,0c-.9,2.55-1.69,5.13-2.45,7.7a112.33,112.33,0,0,0,62.54,0Z" transform="translate(0.03 0.02)"/><path class="cls-3" d="M512.91,167.56c-2.44,1.17-4.82,2.43-7.17,3.71A112.33,112.33,0,0,0,550,215.56c1.28-2.35,2.54-4.73,3.71-7.17A105.44,105.44,0,0,1,512.91,167.56Z" transform="translate(0.03 0.02)"/><path class="cls-3" d="M497.77,89.56a112.33,112.33,0,0,0,0,62.54c2.57-.76,5.15-1.55,7.7-2.45a105.51,105.51,0,0,1,0-57.64C502.92,91.08,500.34,90.29,497.77,89.56Z" transform="translate(0.03 0.02)"/><path class="cls-3" d="M530.45,50.8a103.05,103.05,0,0,1,23.24-17.54c-1.17-2.44-2.43-4.82-3.71-7.17a112.35,112.35,0,0,0-44.22,44.22c2.35,1.28,4.73,2.54,7.17,3.71A102.85,102.85,0,0,1,530.45,50.8Z" transform="translate(0.03 0.02)"/><path class="cls-4" d="M614.48,86.93h0a43.58,43.58,0,0,0-28,0h0a43.62,43.62,0,0,0-19.84,19.84h0a43.58,43.58,0,0,0,0,28h0a43.62,43.62,0,0,0,19.84,19.84h0a43.58,43.58,0,0,0,28,0h0a43.62,43.62,0,0,0,19.84-19.84h0a43.58,43.58,0,0,0,0-28h0A43.62,43.62,0,0,0,614.48,86.93Zm5,25.62a1.11,1.11,0,0,0,.25.6,24,24,0,0,1,0,15.3,1.61,1.61,0,0,1-.17.28,1.16,1.16,0,0,1-.08.32,23.9,23.9,0,0,1-10.79,10.82,1.11,1.11,0,0,0-.6.25,24,24,0,0,1-15.3,0,1.61,1.61,0,0,1-.28-.17,1.16,1.16,0,0,1-.32-.08,23.82,23.82,0,0,1-10.82-10.82,1.16,1.16,0,0,1-.08-.32,1.61,1.61,0,0,1-.17-.28,24,24,0,0,1,0-15.3,1.11,1.11,0,0,0,.25-.6,23.82,23.82,0,0,1,10.82-10.82,1.16,1.16,0,0,1,.32-.08,1.61,1.61,0,0,1,.28-.17,24,24,0,0,1,15.3,0,1.11,1.11,0,0,0,.6.25,23.86,23.86,0,0,1,10.83,10.83Z" transform="translate(0.03 0.02)"/><path class="cls-1" d="M599.55,39c-9.49.46-19.85,7.94-20.14,17.82-.24,8.4,4.5,17,8.73,24.1a49.08,49.08,0,0,1,24.61,0c4.24-7.1,9-15.7,8.74-24.1-.29-9.88-10.65-17.36-20.14-17.82h-.9C600.14,39,599.83,39,599.55,39Z" transform="translate(0.03 0.02)"/><path class="cls-1" d="M657.69,62.31c-7-6.38-19.65-8.42-26.84-1.64C624.74,66.44,622,75.88,620,83.89a49.49,49.49,0,0,1,17.4,17.4c8-2,17.45-4.75,23.22-10.86,6.78-7.19,4.74-19.81-1.64-26.84-.19-.22-.41-.44-.63-.65Z" transform="translate(0.03 0.02)"/><path class="cls-1" d="M682.26,119.9c-.46-9.49-7.94-19.85-17.82-20.14-8.4-.24-17,4.5-24.1,8.74a49.08,49.08,0,0,1,0,24.61c7.1,4.23,15.7,9,24.1,8.73,9.88-.29,17.36-10.65,17.82-20.13v-.91C682.26,120.49,682.28,120.18,682.26,119.9Z" transform="translate(0.03 0.02)"/><path class="cls-1" d="M658.94,178c6.38-7,8.42-19.65,1.64-26.83-5.77-6.12-15.21-8.85-23.22-10.87a49.49,49.49,0,0,1-17.4,17.4c2,8,4.75,17.45,10.86,23.22,7.19,6.78,19.81,4.74,26.84-1.64.22-.19.44-.41.65-.62S658.75,178.23,658.94,178Z" transform="translate(0.03 0.02)"/><path class="cls-1" d="M601.35,202.61c9.49-.46,19.85-7.94,20.14-17.82.24-8.4-4.5-17-8.74-24.1a49.08,49.08,0,0,1-24.61,0c-4.23,7.1-9,15.7-8.73,24.1.29,9.88,10.65,17.36,20.14,17.82h.9C600.76,202.61,601.07,202.63,601.35,202.61Z" transform="translate(0.03 0.02)"/><path class="cls-1" d="M543.24,179.29c7,6.38,19.65,8.42,26.83,1.64,6.12-5.77,8.85-15.21,10.87-23.22a49.49,49.49,0,0,1-17.4-17.4c-8,2-17.45,4.75-23.22,10.87-6.78,7.18-4.74,19.8,1.64,26.83.19.22.41.44.62.66S543,179.1,543.24,179.29Z" transform="translate(0.03 0.02)"/><path class="cls-1" d="M518.69,121.71c.46,9.48,7.94,19.84,17.82,20.13,8.4.24,17-4.5,24.1-8.73a49.08,49.08,0,0,1,0-24.61c-7.1-4.24-15.7-9-24.1-8.74-9.88.29-17.36,10.65-17.82,20.14v.9A4,4,0,0,0,518.69,121.71Z" transform="translate(0.03 0.02)"/><path class="cls-1" d="M542,63.56c-6.38,7-8.42,19.65-1.64,26.84,5.77,6.11,15.21,8.84,23.22,10.86a49.49,49.49,0,0,1,17.4-17.4c-2-8-4.75-17.45-10.87-23.22-7.18-6.78-19.8-4.74-26.83,1.64-.22.19-.44.41-.66.63S542.15,63.37,542,63.56Z" transform="translate(0.03 0.02)"/></svg>