<svg id="Layer_1" data-name="Layer 1" xmlns="http://www.w3.org/2000/svg" viewBox="0 0 494.56 223.18"><defs><style>.cls-1{fill:#f2eade;}</style></defs><path class="cls-1" d="M377.67,519.93a18.33,18.33,0,0,0,13.48-5.52,18.07,18.07,0,0,0,5.51-13.22,18.78,18.78,0,0,0-5.51-13.6,18.89,18.89,0,0,0-26.95,0,18.75,18.75,0,0,0-5.52,13.6,18,18,0,0,0,5.52,13.22A18.33,18.33,0,0,0,377.67,519.93Z" transform="translate(-292.72 -428.41)"/><path class="cls-1" d="M335.32,519.93a18.33,18.33,0,0,0,13.48-5.52,18,18,0,0,0,5.52-13.22,18.75,18.75,0,0,0-5.52-13.6,18.89,18.89,0,0,0-26.95,0,18.75,18.75,0,0,0-5.52,13.6,18,18,0,0,0,5.52,13.22A18.33,18.33,0,0,0,335.32,519.93Z" transform="translate(-292.72 -428.41)"/><path class="cls-1" d="M617.12,519.93a18.33,18.33,0,0,0,13.48-5.52,18,18,0,0,0,5.52-13.22,18.75,18.75,0,0,0-5.52-13.6,18.89,18.89,0,0,0-27,0,18.75,18.75,0,0,0-5.52,13.6,18,18,0,0,0,5.52,13.22A18.33,18.33,0,0,0,617.12,519.93Z" transform="translate(-292.72 -428.41)"/><path class="cls-1" d="M574.78,519.93a18.33,18.33,0,0,0,13.47-5.52,18,18,0,0,0,5.52-13.22,18.75,18.75,0,0,0-5.52-13.6,18.89,18.89,0,0,0-27,0,18.74,18.74,0,0,0-5.51,13.6,18,18,0,0,0,5.51,13.22A18.33,18.33,0,0,0,574.78,519.93Z" transform="translate(-292.72 -428.41)"/><path class="cls-1" d="M717.73,460.62q5.13,4.23,13.34,4.23a30.91,30.91,0,0,0,4.62-.38c1.72-.26,2.91-.47,3.6-.64a3.29,3.29,0,0,0-.52,1.28,5.93,5.93,0,0,1-1.15,2.18,11.29,11.29,0,0,1-2.31,2.18,8,8,0,0,1-4,1.29l-18.22,3.33v11.3l22.33-4.11a19.36,19.36,0,0,0,8.6-3.59,18.82,18.82,0,0,0,5.13-6.55,28.94,28.94,0,0,0,2.57-8.85,82.23,82.23,0,0,0,.64-10.52q0-13.09-5.91-18.23a20.79,20.79,0,0,0-14.11-5.13,19.66,19.66,0,0,0-14.12,5.39q-5.64,5.38-5.64,14.37Q712.6,456.39,717.73,460.62ZM725.81,442q2.19-2.56,6.55-2.56a8.14,8.14,0,0,1,6.41,2.95c1.72,2,2.57,5.09,2.57,9.37v1.79a26.3,26.3,0,0,1-3.34,1,19.1,19.1,0,0,1-4.62.51,17.42,17.42,0,0,1-6.16-1.41q-3.59-1.41-3.59-6A8.56,8.56,0,0,1,725.81,442Z" transform="translate(-292.72 -428.41)"/><path class="cls-1" d="M735.57,616.81A28.2,28.2,0,0,1,728,610.4a30.28,30.28,0,0,1-6.93-18.87,23.65,23.65,0,0,1,23.87-23.86c2.06,0,3.81,0,5.27.12a16.21,16.21,0,0,1,4.36.9,26.55,26.55,0,0,1,4.75,2.31q2.57,1.54,6.67,4.36l21.3-20.53a57.12,57.12,0,0,0-18.09-13,52.88,52.88,0,0,0-22.2-4.75,53.46,53.46,0,0,0-22,4.62,63,63,0,0,0-18.35,12.32A59.54,59.54,0,0,0,694,572a53,53,0,0,0,1.67,47.22H652.29V593.84A55.13,55.13,0,0,0,647.92,572a56.35,56.35,0,0,0-12.06-18A60.45,60.45,0,0,0,618,541.74a51.65,51.65,0,0,0-21.68-4.62,53.46,53.46,0,0,0-22,4.62A63,63,0,0,0,556,554.06a59.54,59.54,0,0,0-12.7,18,51.24,51.24,0,0,0-4.75,21.81,53,53,0,0,0,1.67,13.35,61.29,61.29,0,0,0,4.49,12.06H511.39q-11,0-15.28-4.62t-4.23-14.88V446.27H458v154.5q0,10.28-5.39,14.38t-16.94,4.1H417.2q-5.4,0-7.83-1a5.38,5.38,0,0,1-3.21-3.34,14.32,14.32,0,0,1-.39-5.9,79.81,79.81,0,0,0,.39-8.47c0-.86,0-1.76.13-2.7s.13-1.92.13-3V539.43H348.67A54.27,54.27,0,0,0,327,543.8a57.19,57.19,0,0,0-17.71,11.8,56.43,56.43,0,0,0-12.06,17.58,53,53,0,0,0-4.49,21.69,51.32,51.32,0,0,0,4.75,21.82,59.49,59.49,0,0,0,12.7,18A63,63,0,0,0,328.52,647a54.85,54.85,0,0,0,42.22.77A55,55,0,0,0,387.68,637a39.39,39.39,0,0,0,10.39,8.47q6.56,3.86,16.3,3.85h33.11q13.09,0,22.84-5A32.16,32.16,0,0,0,485,629q7.44,11.54,15.53,15.91t20.66,4.36H786.51v-30H744.93A18.36,18.36,0,0,1,735.57,616.81ZM372.28,597.18a22.46,22.46,0,0,1-1.92,9.37,27.17,27.17,0,0,1-5.14,7.57,22.08,22.08,0,0,1-7.57,5.13,24,24,0,0,1-9.24,1.8,23.66,23.66,0,0,1-23.87-23.87,28,28,0,0,1,1.8-9.75,29.75,29.75,0,0,1,5.13-8.86,28.31,28.31,0,0,1,7.57-6.41,18.43,18.43,0,0,1,9.37-2.44h23.87Zm245.87,22.07H593.26a18.51,18.51,0,0,1-9-2.82,28.46,28.46,0,0,1-7.18-6.42,30.81,30.81,0,0,1-4.88-8.72,28,28,0,0,1-1.8-9.76,23.65,23.65,0,0,1,23.87-23.86,24,24,0,0,1,9.24,1.79,22,22,0,0,1,7.57,5.13,26.68,26.68,0,0,1,5.14,7.7,22.7,22.7,0,0,1,1.92,9.24Z" transform="translate(-292.72 -428.41)"/></svg>